# xmcd CD database file
#
# Track frame offsets:
#	150
#	15487
#	37150
#	50427
#	69362
#	88967
#	110737
#	134187
#	159175
#	179072
#	199222
#	220420
#	239315
#	260032
#	277542
#	304547
#
# Disc length: 4281 seconds
#
# Revision: 0
# Processed by: cddbd v1.5.2PL0 Copyright (c) Steve Scherf et al.
# Submitted via: CDex 1.70beta2
#
DISCID=ee10b710
DTITLE=Linda Eder - Best
DYEAR=1900
DGENRE=Jazz
TTITLE0=No One Knows Who I Am
TTITLE1=We Still Have Time
TTITLE2=Once upon a Dream
TTITLE3=Love Has Come of Age
TTITLE4=A New Life
TTITLE5=As the River Runs
TTITLE6=From This Moment on
TTITLE7=After All
TTITLE8=Every Little Thing
TTITLE9=Love is Forever
TTITLE10=Rescue Me
TTITLE11=I Nover Know Love Could Be Like This
TTITLE12=A Little Bit of Heaven
TTITLE13=Before I Fall
TTITLE14=Vienna
TTITLE15=Someone Like You
EXTD=
EXTT0=
EXTT1=
EXTT2=
EXTT3=
EXTT4=
EXTT5=
EXTT6=
EXTT7=
EXTT8=
EXTT9=
EXTT10=
EXTT11=
EXTT12=
EXTT13=
EXTT14=
EXTT15=
PLAYORDER=
